<svg width="496" height="566" viewBox="0 0 496 566" fill="none" xmlns="http://www.w3.org/2000/svg">
<g clip-path="url(#clip0_240_446)">
<path d="M237.77 530.894L237.138 516.696C237.073 516.662 237.007 516.627 236.941 516.592C230.175 513.042 222.421 519.469 224.582 526.798C226.615 533.694 227.981 541.128 231.703 547.164C233.902 550.67 236.862 553.636 240.364 555.842C243.865 558.049 247.818 559.439 251.929 559.91L260.526 565.173C261.705 558.597 261.445 551.844 259.763 545.378C258.082 538.913 255.018 532.888 250.784 527.721C248.38 524.845 245.623 522.284 242.579 520.097C240.52 525.526 237.77 530.894 237.77 530.894Z" fill="#F2F2F2"/>
<path d="M160.806 386.809C144.256 369.741 120.273 359.952 95.0056 359.952L94.031 359.955C77.3882 359.961 61.0424 355.547 46.6654 347.164L45.1693 346.292L46.3743 345.05C52.8977 338.301 58.3448 330.589 62.5247 322.185C59.5561 324.952 56.0154 327.034 52.1532 328.281C48.291 329.529 44.2018 329.913 40.175 329.405C35.9236 328.898 31.8422 327.435 28.2369 325.126C24.6317 322.817 21.5961 319.721 19.3579 316.071C10.5268 301.742 0 281.411 0 265.923C0.013747 252.831 2.75491 239.886 8.04876 227.912C13.3426 215.939 21.073 205.199 30.7473 196.379C36.8719 190.856 41.7639 184.105 45.1044 176.565C48.4448 169.025 50.1587 160.866 50.1343 152.619L50.1293 151.446C50.1277 140.588 51.4545 129.772 54.0801 119.236L54.3467 118.173L55.4413 118.211C62.4997 118.451 69.5618 117.859 76.4819 116.448C69.9909 115.652 63.6409 113.963 57.6121 111.429L56.4346 110.953L56.8342 109.746C84.381 92.6904 146.562 101.523 182.654 18.9471C211.92 -48.0107 315.178 78.3855 315.178 151.446C315.178 158.9 307.8 168.752 313.323 173.679C373.028 226.944 331.833 261.147 318.844 295.564C315.763 303.73 322.445 312.694 322.445 321.529C322.445 323.028 322.406 324.575 322.331 326.128L322.216 328.515L320.225 327.19C316.287 324.61 312.637 321.616 309.336 318.259C312.76 326.138 314.374 334.685 314.059 343.27C313.743 351.855 311.507 360.26 307.514 367.867C301.257 379.676 295.204 388.131 289.523 392.994C271.324 408.568 247.863 416.601 223.937 415.452C200.011 414.302 177.428 404.056 160.806 386.809Z" fill="#E6E6E6"/>
<path d="M260.763 564.472C261.17 564.472 261.563 564.325 261.87 564.058C262.177 563.791 262.378 563.422 262.435 563.02C262.507 562.515 269.544 511.762 263.224 444.309C257.388 382.015 238.643 292.289 182.494 218.598C182.359 218.421 182.191 218.273 181.999 218.161C181.807 218.049 181.595 217.976 181.375 217.946C181.154 217.916 180.93 217.93 180.715 217.987C180.501 218.043 180.299 218.142 180.122 218.277C179.945 218.411 179.797 218.58 179.685 218.772C179.573 218.964 179.501 219.176 179.471 219.396C179.442 219.617 179.456 219.841 179.513 220.055C179.57 220.27 179.668 220.472 179.803 220.648C235.468 293.702 254.061 382.77 259.857 444.624C266.14 511.685 259.158 562.042 259.087 562.543C259.053 562.783 259.071 563.027 259.14 563.26C259.209 563.492 259.326 563.707 259.485 563.89C259.644 564.073 259.841 564.22 260.061 564.32C260.282 564.421 260.521 564.472 260.763 564.472Z" fill="#3F3D56"/>
<path d="M214.942 322.542C215.299 322.542 215.647 322.43 215.937 322.22C216.226 322.01 216.441 321.714 216.551 321.374C216.662 321.035 216.662 320.669 216.552 320.329C216.442 319.989 216.227 319.693 215.938 319.483C215.734 319.335 195.193 304.534 164.484 293.29C136.096 282.897 92.9274 273.475 48.4864 287.619C48.2745 287.686 48.0779 287.794 47.9078 287.938C47.7377 288.081 47.5975 288.256 47.4953 288.453C47.393 288.651 47.3306 288.866 47.3118 289.088C47.2929 289.309 47.3179 289.532 47.3853 289.744C47.4527 289.956 47.5612 290.152 47.7046 290.322C47.848 290.492 48.0235 290.632 48.221 290.734C48.4185 290.836 48.6342 290.898 48.8558 290.916C49.0773 290.935 49.3002 290.909 49.5119 290.842C93.0424 276.988 135.428 286.255 163.321 296.466C193.591 307.55 213.749 322.074 213.949 322.219C214.238 322.429 214.585 322.542 214.942 322.542Z" fill="#3F3D56"/>
<path d="M292.338 129.775C292.364 129.419 292.277 129.064 292.088 128.76C291.9 128.457 291.62 128.221 291.289 128.086C290.959 127.951 290.594 127.925 290.247 128.01C289.9 128.096 289.589 128.289 289.359 128.562C289.196 128.755 272.955 148.177 259.528 177.996C247.118 205.562 234.612 247.94 245.519 293.284C245.624 293.72 245.897 294.096 246.28 294.331C246.662 294.565 247.122 294.637 247.558 294.532C247.994 294.428 248.371 294.154 248.605 293.771C248.839 293.389 248.912 292.929 248.807 292.493C238.124 248.078 250.419 206.47 262.613 179.385C275.847 149.991 291.785 130.931 291.944 130.742C292.175 130.47 292.313 130.131 292.338 129.775Z" fill="#3F3D56"/>
<path d="M290.05 216.972C291.477 228.484 299.453 237.975 311.053 237.975C316.623 237.975 321.965 235.762 325.904 231.823C329.843 227.885 332.056 222.543 332.056 216.972C332.056 205.373 322.603 197.042 311.053 195.97C298.798 194.832 288.218 202.193 290.05 216.972Z" fill="#2F2E41"/>
<path d="M320.781 555.222L328.779 555.221L332.584 524.371L320.779 524.372L320.781 555.222Z" fill="#FFB6B6"/>
<path d="M320.499 563.565L345.094 563.564V563.253C345.094 560.714 344.086 558.28 342.29 556.484C340.495 554.689 338.06 553.68 335.521 553.68H335.521L331.028 550.272L322.646 553.681L320.499 553.681L320.499 563.565Z" fill="#2F2E41"/>
<path d="M289.276 555.222L297.274 555.221L301.079 524.371L289.274 524.372L289.276 555.222Z" fill="#FFB6B6"/>
<path d="M288.996 563.565L313.59 563.564V563.253C313.59 560.714 312.582 558.28 310.786 556.484C308.991 554.689 306.556 553.68 304.017 553.68H304.017L299.524 550.272L291.142 553.681L288.995 553.681L288.996 563.565Z" fill="#2F2E41"/>
<path d="M348.304 362.004L353.958 381.391L347.297 463.499C347.297 463.499 350.727 468.633 348.304 468.633C345.88 468.633 342.773 469.771 344.731 472.837C346.688 475.903 339.997 486.91 339.997 486.91L330.532 545.374L318.472 545.196C318.472 545.196 312.341 541.78 315.782 538.326C319.223 534.872 321.646 534.872 318.415 531.641C315.184 528.41 315.184 529.383 315.184 526.877C315.184 524.371 311.947 493.745 319.624 481.997L317.311 434.098L311.862 481.081L300.644 543.758L289.026 543.662C289.026 543.662 283.66 538.49 283.67 534.662C283.68 530.833 286.985 530.515 284.525 528.251C282.064 525.987 282.064 491.2 289.335 471.864C289.335 471.864 293.447 461.061 289.325 457.359C285.203 453.657 289.32 449.421 289.32 449.421C289.32 449.421 295.849 447.061 289.314 440.261C282.78 433.462 289.279 385.372 289.279 385.372C289.279 385.372 282.136 365.96 289.37 358.327C296.605 350.694 348.304 362.004 348.304 362.004Z" fill="#2F2E41"/>
<path d="M247.592 395.406L257.681 371.025L265.63 375.441L260.829 400.242C261.31 401.814 261.343 403.488 260.924 405.077C260.506 406.666 259.652 408.107 258.46 409.237C257.267 410.368 255.783 411.143 254.174 411.476C252.565 411.809 250.895 411.687 249.351 411.123C247.808 410.559 246.453 409.576 245.437 408.284C244.422 406.992 243.787 405.442 243.605 403.809C243.422 402.176 243.698 400.525 244.403 399.04C245.107 397.556 246.212 396.297 247.592 395.406Z" fill="#FFB6B6"/>
<path d="M416.886 202.608L401.535 224.069L394.794 217.967L405.089 194.898C404.977 193.259 405.324 191.621 406.092 190.168C406.86 188.715 408.017 187.505 409.435 186.674C410.853 185.843 412.474 185.424 414.117 185.464C415.759 185.504 417.358 186.002 418.734 186.901C420.109 187.8 421.207 189.065 421.903 190.553C422.599 192.042 422.866 193.695 422.674 195.327C422.482 196.959 421.839 198.505 420.816 199.791C419.794 201.077 418.433 202.053 416.886 202.608Z" fill="#FFB6B6"/>
<path d="M349.828 363.992C359.784 379.435 309.735 399.034 290.532 391.166C287.169 389.788 275.602 385.237 283.508 378.928C291.415 372.619 282.592 371.731 282.383 367.624C282.244 364.878 284.369 358.854 282.151 359.113C279.933 359.371 277.337 355.574 282.168 353.939C286.999 352.305 282.22 350.815 282.262 349.264C282.724 332.336 295.712 305.411 295.712 305.411L272.309 365.234C272.309 365.234 272.482 375.584 269.497 372.421C266.513 369.258 266.73 379.495 266.73 379.495C266.73 379.495 262.293 382.592 264.844 384.315C267.396 386.039 262.097 391.338 262.097 391.338L249.732 390.455C249.732 390.455 249.926 381.27 252.037 379.238C254.148 377.207 253.111 374.011 253.111 374.011C253.111 374.011 258.608 369.145 254.923 365.194C250.184 360.113 267.463 274.293 273.427 275.143C274.27 271.04 276.231 267.249 279.094 264.191C281.956 261.133 285.609 258.926 289.647 257.814L303.002 254.137L305.374 244.728H324.178L327.453 250.911L341.75 257.362C344.442 253.563 346.455 249.559 357.482 248.261C357.482 248.261 387.195 221.227 385.744 219.116C384.293 217.005 388.899 212.063 388.899 212.063C388.899 212.063 392.833 210.775 390.613 210.088C388.394 209.401 392.589 207.811 392.589 207.811C392.589 207.811 396.475 206.79 394.642 205.446C392.809 204.102 400.758 203.218 400.758 203.218L411.071 211.633L408.987 215.167C408.987 215.167 410.258 219.98 408.599 218.223C406.941 216.466 406.628 221.565 406.628 221.565C406.628 221.565 405.781 227.149 400.758 228.831C395.735 230.513 391.926 246.495 391.926 246.495C380.08 261.897 366.1 273.913 349.533 281.822C355.99 289.233 349.828 363.992 349.828 363.992Z" fill="#6C63FF"/>
<path d="M313.374 239.222C323.66 239.222 331.999 230.884 331.999 220.598C331.999 210.312 323.66 201.974 313.374 201.974C303.088 201.974 294.75 210.312 294.75 220.598C294.75 230.884 303.088 239.222 313.374 239.222Z" fill="#FFB6B6"/>
<path d="M294.089 222.627C294.679 226.674 298.128 232.32 297.32 232.32C296.513 232.32 290.769 215.637 296.513 214.549C300.679 213.76 301.61 214.452 305.503 212.764L304.954 213.281C307.531 215.155 311.118 214 314.058 212.78C317.006 211.568 320.585 210.413 323.17 212.279C324.794 213.45 325.48 215.486 326.49 217.215C327.5 218.951 329.366 220.591 331.288 220.058C332.831 219.63 333.72 217.901 333.712 216.302C333.704 214.702 331.621 213.181 332.322 211.746C334.401 207.493 332.532 204.595 328 202.593C326.353 202.343 324.705 202.087 323.057 201.826C323.92 200.63 324.967 199.578 326.159 198.708C325.655 197.417 324.785 196.302 323.654 195.501C322.338 194.717 320.706 194.774 319.179 194.855C315.77 195.032 312.364 195.21 308.961 195.388C306.44 195.517 303.831 195.671 301.577 196.826C298.766 198.272 296.925 201.091 295.584 203.959C292.579 210.405 293.055 215.591 294.089 222.627Z" fill="#2F2E41"/>
<path d="M216.612 565.663L399.78 565.912C400.035 565.912 400.28 565.81 400.46 565.63C400.641 565.45 400.742 565.205 400.742 564.95C400.742 564.695 400.641 564.45 400.46 564.27C400.28 564.089 400.035 563.988 399.78 563.988L216.612 563.74C216.357 563.74 216.112 563.841 215.932 564.021C215.752 564.202 215.65 564.446 215.65 564.702C215.65 564.957 215.752 565.201 215.932 565.382C216.112 565.562 216.357 565.663 216.612 565.663Z" fill="#CACACA"/>
<path d="M150.366 481.821C150.703 479.5 148.272 477.226 144.936 476.74C141.6 476.255 138.622 477.743 138.284 480.063C137.947 482.384 140.377 484.659 143.714 485.145C147.05 485.63 150.028 484.142 150.366 481.821Z" fill="#E6E6E6"/>
<path d="M190.086 477.945C190.424 475.624 187.993 473.35 184.657 472.864C181.321 472.379 178.343 473.867 178.005 476.187C177.667 478.508 180.098 480.783 183.434 481.269C186.77 481.754 189.749 480.266 190.086 477.945Z" fill="#3F3D56"/>
<path d="M139.489 449.664C139.826 447.343 137.395 445.069 134.059 444.583C130.723 444.098 127.745 445.586 127.407 447.906C127.07 450.227 129.5 452.502 132.837 452.988C136.173 453.473 139.151 451.985 139.489 449.664Z" fill="#FF6584"/>
<path d="M122.229 436.492C122.245 434.362 121.056 432.626 119.574 432.614C118.092 432.603 116.877 434.321 116.861 436.452C116.845 438.582 118.034 440.319 119.516 440.33C120.998 440.341 122.212 438.623 122.229 436.492Z" fill="#E6E6E6"/>
<path d="M116.376 411.958C116.392 409.828 115.204 408.091 113.722 408.08C112.239 408.069 111.025 409.787 111.009 411.918C110.993 414.048 112.181 415.784 113.663 415.796C115.145 415.807 116.36 414.089 116.376 411.958Z" fill="#3F3D56"/>
<path d="M161.892 455.136C161.908 453.006 160.719 451.27 159.237 451.258C157.755 451.247 156.54 452.965 156.524 455.096C156.508 457.226 157.697 458.963 159.179 458.974C160.661 458.985 161.876 457.267 161.892 455.136Z" fill="#E6E6E6"/>
<path d="M142.696 464.72C142.712 462.59 141.524 460.853 140.042 460.842C138.56 460.831 137.345 462.549 137.329 464.68C137.313 466.81 138.501 468.546 139.983 468.558C141.466 468.569 142.68 466.851 142.696 464.72Z" fill="#FF6584"/>
<path d="M169.416 482.433C169.432 480.303 168.244 478.566 166.762 478.555C165.279 478.544 164.065 480.262 164.049 482.393C164.033 484.523 165.221 486.26 166.703 486.271C168.185 486.282 169.4 484.564 169.416 482.433Z" fill="#3F3D56"/>
<path d="M455.713 357.42C456.051 355.1 453.62 352.825 450.284 352.339C446.948 351.854 443.97 353.342 443.632 355.663C443.294 357.983 445.725 360.258 449.061 360.744C452.397 361.229 455.376 359.741 455.713 357.42Z" fill="#E6E6E6"/>
<path d="M495.434 353.545C495.772 351.224 493.341 348.949 490.005 348.463C486.668 347.978 483.69 349.466 483.353 351.787C483.015 354.108 485.446 356.382 488.782 356.868C492.118 357.353 495.096 355.865 495.434 353.545Z" fill="#3F3D56"/>
<path d="M444.835 325.263C445.173 322.943 442.742 320.668 439.406 320.182C436.07 319.697 433.092 321.185 432.754 323.506C432.416 325.826 434.847 328.101 438.183 328.587C441.519 329.072 444.498 327.584 444.835 325.263Z" fill="#FF6584"/>
<path d="M427.577 312.091C427.593 309.961 426.405 308.225 424.923 308.213C423.441 308.202 422.226 309.92 422.21 312.051C422.194 314.181 423.382 315.918 424.864 315.929C426.346 315.94 427.561 314.222 427.577 312.091Z" fill="#E6E6E6"/>
<path d="M421.724 287.557C421.74 285.427 420.551 283.69 419.069 283.679C417.587 283.668 416.372 285.386 416.356 287.517C416.34 289.647 417.529 291.384 419.011 291.395C420.493 291.406 421.708 289.688 421.724 287.557Z" fill="#3F3D56"/>
<path d="M467.239 330.736C467.255 328.605 466.067 326.869 464.585 326.858C463.103 326.846 461.888 328.565 461.872 330.695C461.856 332.826 463.044 334.562 464.526 334.573C466.009 334.584 467.223 332.866 467.239 330.736Z" fill="#E6E6E6"/>
<path d="M448.044 340.319C448.06 338.189 446.872 336.453 445.389 336.441C443.907 336.43 442.693 338.148 442.677 340.279C442.661 342.409 443.849 344.146 445.331 344.157C446.813 344.168 448.028 342.45 448.044 340.319Z" fill="#FF6584"/>
<path d="M474.764 358.033C474.78 355.902 473.591 354.166 472.109 354.155C470.627 354.143 469.412 355.861 469.396 357.992C469.38 360.123 470.569 361.859 472.051 361.87C473.533 361.881 474.748 360.163 474.764 358.033Z" fill="#3F3D56"/>
<path d="M307.886 127.198C308.224 124.877 305.793 122.602 302.457 122.117C299.121 121.632 296.142 123.119 295.805 125.44C295.467 127.761 297.898 130.036 301.234 130.521C304.57 131.007 307.548 129.519 307.886 127.198Z" fill="white"/>
<path d="M347.607 123.322C347.944 121.001 345.514 118.727 342.178 118.241C338.841 117.756 335.863 119.244 335.525 121.564C335.188 123.885 337.619 126.16 340.955 126.645C344.291 127.131 347.269 125.643 347.607 123.322Z" fill="#3F3D56"/>
<path d="M297.01 95.0411C297.348 92.7202 294.917 90.4454 291.581 89.96C288.245 89.4746 285.266 90.9625 284.929 93.2833C284.591 95.6041 287.022 97.879 290.358 98.3644C293.694 98.8498 296.672 97.3619 297.01 95.0411Z" fill="#FF6584"/>
<path d="M279.75 81.8692C279.766 79.7386 278.578 78.0023 277.096 77.9911C275.613 77.9799 274.399 79.698 274.383 81.8286C274.367 83.9592 275.555 85.6955 277.037 85.7067C278.519 85.7179 279.734 83.9998 279.75 81.8692Z" fill="#E6E6E6"/>
<path d="M273.897 57.335C273.913 55.2044 272.724 53.4682 271.242 53.4569C269.76 53.4457 268.545 55.1638 268.529 57.2944C268.513 59.425 269.702 61.1613 271.184 61.1725C272.666 61.1837 273.88 59.4656 273.897 57.335Z" fill="#3F3D56"/>
<path d="M319.412 100.513C319.428 98.3828 318.24 96.6465 316.758 96.6353C315.275 96.6241 314.061 98.3422 314.045 100.473C314.029 102.603 315.217 104.34 316.699 104.351C318.181 104.362 319.396 102.644 319.412 100.513Z" fill="#E6E6E6"/>
<path d="M300.218 110.097C300.234 107.967 299.045 106.23 297.563 106.219C296.081 106.208 294.867 107.926 294.85 110.057C294.834 112.187 296.023 113.923 297.505 113.935C298.987 113.946 300.202 112.228 300.218 110.097Z" fill="#FF6584"/>
<path d="M326.937 127.81C326.953 125.68 325.764 123.943 324.282 123.932C322.8 123.921 321.585 125.639 321.569 127.77C321.553 129.9 322.742 131.637 324.224 131.648C325.706 131.659 326.92 129.941 326.937 127.81Z" fill="#3F3D56"/>
</g>
<defs>
<clipPath id="clip0_240_446">
<rect width="495.465" height="565.912" fill="white"/>
</clipPath>
</defs>
</svg>
